<svg xmlns="http://www.w3.org/2000/svg" width="900" height="900" viewBox="0 0 900 900" role="img" aria-label="Diagrama muscular Rosca Scott">
  <defs>
    <linearGradient id="bg" x1="0" x2="1" y1="0" y2="1">
      <stop offset="0" stop-color="#0e0e0e"/>
      <stop offset="1" stop-color="#201f1f"/>
    </linearGradient>
  </defs>
  <rect width="900" height="900" fill="url(#bg)"/>
  <g opacity="0.16" stroke="#e5e2e1" stroke-width="1">
    <path d="M90 150H810M90 300H810M90 450H810M90 600H810M90 750H810"/>
    <path d="M150 90V810M300 90V810M450 90V810M600 90V810M750 90V810"/>
  </g>
  <g transform="translate(316 116)" fill="none" stroke-linecap="round" stroke-linejoin="round">
    <circle cx="134" cy="66" r="50" stroke="#e5e2e1" stroke-width="10" opacity="0.86"/>
    <path d="M134 122v124" stroke="#e5e2e1" stroke-width="18" opacity="0.76"/>
    <path d="M58 170c42 32 110 32 152 0" stroke="#38bdf8" stroke-width="18"/>
    <path d="M82 252c32 54 72 54 104 0" stroke="#38bdf8" stroke-width="18" opacity="0.72"/>
    <path d="M44 320l90-74 90 74" stroke="#e5e2e1" stroke-width="15" opacity="0.58"/>
    <path d="M84 500l50-180 50 180" stroke="#e5e2e1" stroke-width="18" opacity="0.72"/>
    <path d="M82 690l52-190 52 190" stroke="#38bdf8" stroke-width="18" opacity="0.78"/>
  </g>
  <g transform="translate(64 64)">
    <rect x="0" y="0" width="164" height="36" rx="4" fill="#38bdf8" fill-opacity="0.16" stroke="#38bdf8" stroke-opacity="0.55"/>
    <text x="18" y="24" fill="#38bdf8" font-family="JetBrains Mono, Consolas, monospace" font-size="14" font-weight="700" letter-spacing="2">HYPERTROPHY</text>
    <text x="0" y="110" fill="#f4f4f5" font-family="Inter, Arial, sans-serif" font-size="42" font-weight="800">Biceps</text>
    <text x="0" y="152" fill="#919095" font-family="Inter, Arial, sans-serif" font-size="20">Braquial</text>
  </g>
  <g transform="translate(64 796)">
    <text fill="#c8c6ca" font-family="Inter, Arial, sans-serif" font-size="24" font-weight="700">Rosca Scott</text>
    <text y="38" fill="#919095" font-family="JetBrains Mono, Consolas, monospace" font-size="14" letter-spacing="2">ACTIVE MUSCLE MAP</text>
  </g>
</svg>
