<svg xmlns="http://www.w3.org/2000/svg" width="1280" height="720" viewBox="0 0 1280 720" role="img" aria-label="Intervalado 400m">
  <defs>
    <linearGradient id="bg" x1="0" x2="1" y1="0" y2="1">
      <stop offset="0" stop-color="#0e0e0e"/>
      <stop offset="1" stop-color="#201f1f"/>
    </linearGradient>
    <radialGradient id="signal" cx="70%" cy="38%" r="55%">
      <stop offset="0" stop-color="#ef4444" stop-opacity="0.28"/>
      <stop offset="1" stop-color="#ef4444" stop-opacity="0"/>
    </radialGradient>
  </defs>
  <rect width="1280" height="720" fill="url(#bg)"/>
  <rect width="1280" height="720" fill="url(#signal)"/>
  <g opacity="0.22" stroke="#e5e2e1" stroke-width="1">
    <path d="M92 118H1188M92 242H1188M92 366H1188M92 490H1188M92 614H1188"/>
    <path d="M160 72V648M320 72V648M480 72V648M640 72V648M800 72V648M960 72V648M1120 72V648"/>
  </g>
  <g transform="translate(780 112)" stroke="#ef4444" stroke-linecap="round" stroke-linejoin="round" fill="none">
    <circle cx="178" cy="72" r="42" stroke-width="12" opacity="0.95"/>
    <path d="M178 118v156M96 172c54 36 110 36 164 0M128 324l50-50 52 50M128 474l50-150 52 150" stroke-width="16"/>
    <path d="M56 288h244M48 474h260" stroke-width="20" opacity="0.42"/>
    <rect x="16" y="474" width="332" height="30" rx="6" stroke-width="8" opacity="0.72"/>
  </g>
  <g transform="translate(72 78)">
    <rect x="0" y="0" width="152" height="34" rx="4" fill="#ef4444" fill-opacity="0.16" stroke="#ef4444" stroke-opacity="0.55"/>
    <text x="18" y="23" fill="#ef4444" font-family="JetBrains Mono, Consolas, monospace" font-size="14" font-weight="700" letter-spacing="2">HIIT</text>
    <text x="0" y="148" fill="#f4f4f5" font-family="Inter, Arial, sans-serif" font-size="62" font-weight="800">Intervalado 400m</text>
    <text x="0" y="206" fill="#c8c6ca" font-family="Inter, Arial, sans-serif" font-size="28" font-weight="500">Sistema cardiovascular</text>
    <text x="0" y="252" fill="#919095" font-family="Inter, Arial, sans-serif" font-size="20">Quadriceps, Isquiotibiais, Gluteos, Panturrilhas</text>
  </g>
  <g transform="translate(72 590)">
    <text fill="#919095" font-family="JetBrains Mono, Consolas, monospace" font-size="15" letter-spacing="2">AEROFIT PRECISION / EXERCISE GUIDE</text>
    <rect x="0" y="28" width="480" height="4" fill="#ffffff" opacity="0.08"/>
    <rect x="0" y="28" width="220" height="4" fill="#ef4444"/>
  </g>
</svg>
